<?xml version="1.0" standalone="no"?>
<!DOCTYPE svg PUBLIC "-//W3C//DTD SVG 20010904//EN"
 "http://www.w3.org/TR/2001/REC-SVG-20010904/DTD/svg10.dtd">
<svg version="1.0" xmlns="http://www.w3.org/2000/svg"
 width="300.000000pt" height="300.000000pt" viewBox="0 0 300.000000 300.000000"
 preserveAspectRatio="xMidYMid meet">
<metadata>
Created by potrace 1.10, written by Peter Selinger 2001-2011
</metadata>
<g transform="translate(0.000000,300.000000) scale(0.050000,-0.050000)"
fill="#000000" stroke="none">
<path d="M0 3000 l0 -3000 3000 0 3000 0 0 3000 0 3000 -3000 0 -3000 0 0
-3000z m2000 2350 l0 -290 950 0 949 0 51 -80 c27 -43 50 -83 50 -88 0 -5 45
-84 100 -176 55 -91 100 -177 100 -190 0 -19 -219 -26 -935 -30 -1356 -9
-1265 83 -1265 -1276 0 -994 0 -997 135 -1132 113 -113 229 -148 488 -148
l195 0 141 -199 c78 -110 147 -213 153 -230 11 -28 -128 -31 -1320 -31 -779 0
-1332 7 -1332 18 0 10 64 113 141 230 l142 212 95 0 c217 0 403 110 482 285
37 81 39 141 40 1180 l0 1095 -410 0 c-226 0 -410 4 -410 9 0 5 60 131 133
280 l134 271 276 0 277 0 0 187 0 187 155 54 c85 29 214 74 285 101 214 78
200 94 200 -239z m2762 -1079 c572 -298 496 -772 -179 -1109 -62 -31 -149 -68
-193 -82 -111 -35 -120 -49 -77 -113 21 -32 54 -91 72 -131 40 -89 47 -91 375
-103 991 -36 1443 -542 730 -818 -65 -25 -440 -115 -480 -115 -26 0 -5 -57 51
-140 145 -215 178 -350 108 -444 -275 -367 -2185 -259 -1944 110 159 241 1095
220 1095 -25 0 -78 -214 -179 -388 -183 l-82 -2 80 -27 c176 -58 707 -9 900
82 158 76 190 213 82 354 -29 38 -52 76 -52 85 0 9 -22 45 -49 81 l-50 65
-515 10 c-415 8 -551 18 -696 50 -99 22 -211 47 -250 54 -254 51 -760 313
-760 393 0 12 -18 44 -40 72 -112 142 15 341 337 530 70 41 131 75 136 75 4 0
82 35 172 79 91 43 210 93 265 111 55 17 118 39 140 49 84 34 203 79 272 103
l72 24 -70 122 c-92 159 -106 398 -29 505 25 35 45 73 45 84 0 30 195 175 291
216 276 118 456 129 631 38z"/>
<path d="M4348 3972 c-448 -208 -490 -725 -44 -531 466 204 687 434 527 551
-68 49 -361 37 -483 -20z"/>
<path d="M3790 2882 c-854 -298 -1096 -564 -730 -801 254 -164 656 -244 1227
-245 431 -1 445 4 366 123 -29 44 -53 85 -53 90 0 32 -226 409 -251 419 -97
37 -509 -148 -509 -230 0 -77 265 -217 415 -218 25 0 45 -9 45 -20 0 -54 -320
-11 -550 75 -440 163 -312 445 269 592 224 56 217 47 132 181 -86 133 -79 132
-361 34z"/>
<path d="M4600 2449 c0 -18 29 -73 63 -124 35 -51 90 -142 123 -204 143 -271
137 -268 338 -198 325 112 386 271 159 414 -172 108 -683 192 -683 112z"/>
</g>
</svg>
